# xmcd
#
# Track frame offsets:
#	150
#	10542
#	22746
#	27482
#	34837
#	46860
#	51791
#	61111
#	72743
#	80579
#	84542
#	92030
#	96689
#	106427
#	114103
#	133412
#	137786
#	140983
#	144834
#	148295
#	156751
#	163814
#	169741
#	187371
#
# Disc length: 2598 seconds
# Revision: 0
# Processed by: cddbd v1.5.2PL0 Copyright (c) Steve Scherf et al.
# Submitted via: dBpowerAMP V12.0
#
DISCID=610a2418
DTITLE=Lawrence Older - Adirondack Songs, Ballads and Tunes
DYEAR=2002
DGENRE=Folk
TTITLE0=Once More a-Lumbering Go
TTITLE1=Randy Riley
TTITLE2=Bonnet Trimmed In Blue
TTITLE3=Jed Hobson
TTITLE4=Flim-a-Lim-a-Lee
TTITLE5=Devil's Dream
TTITLE6=Woman from Yorkshire
TTITLE7=My Old Brown Coat and Me
TTITLE8=Not Far from Ballston
TTITLE9=Bonaparte's March
TTITLE10=Old Shoes and Leggings
TTITLE11=Gypsy Davy
TTITLE12=Frog in the Spring
TTITLE13=Johnny Randall
TTITLE14=Bonnie Black Bess
TTITLE15=Ce Pouflas
TTITLE16=En Roulant
TTITLE17=La Bastringue
TTITLE18=Jim Along Josie
TTITLE19=Pat Malone
TTITLE20=Peg and Awl
TTITLE21=Johnson's Road
TTITLE22=Elder Bordee
TTITLE23=Derby Ram
EXTD=
EXTT0=
EXTT1=
EXTT2=
EXTT3=
EXTT4=
EXTT5=
EXTT6=
EXTT7=
EXTT8=
EXTT9=
EXTT10=
EXTT11=
EXTT12=
EXTT13=
EXTT14=
EXTT15=
EXTT16=
EXTT17=
EXTT18=
EXTT19=
EXTT20=
EXTT21=
EXTT22=
EXTT23=
PLAYORDER=
